
<svg viewBox="0 0 89 87" fill="none" xmlns="http://www.w3.org/2000/svg">
<path fill-rule="evenodd" clip-rule="evenodd" d="M52.0644 4.76071C48.5786 -1.5869 39.4589 -1.5869 35.973 4.7607C33.7571 8.79575 28.8952 10.5654 24.604 8.89869C17.8535 6.27679 10.8674 12.1388 12.2773 19.2421C13.1735 23.7574 10.5865 28.2383 6.22793 29.7198C-0.628552 32.0504 -2.21218 41.0316 3.43369 45.5667C7.02265 48.4496 7.92111 53.5451 5.53459 57.4816C1.78033 63.6742 6.3402 71.5722 13.5803 71.4172C18.1827 71.3187 22.1462 74.6445 22.8484 79.194C23.953 86.3511 32.5228 89.4702 37.9694 84.6976C41.4317 81.6638 46.6057 81.6638 50.0681 84.6976C55.5147 89.4702 64.0844 86.3511 65.189 79.194C65.8912 74.6445 69.8548 71.3187 74.4571 71.4172C81.6973 71.5722 86.2571 63.6742 82.5029 57.4816C80.1163 53.5451 81.0148 48.4496 84.6038 45.5668C90.2496 41.0316 88.666 32.0504 81.8095 29.7198C77.451 28.2383 74.864 23.7574 75.7602 19.2421C77.1701 12.1388 70.1839 6.27679 63.4334 8.89869C59.1423 10.5654 54.2803 8.79575 52.0644 4.76071ZM49.0327 19.7549C46.8604 15.7991 41.1771 15.7991 39.0047 19.7549C37.6238 22.2695 34.5939 23.3723 31.9197 22.3336C27.7129 20.6997 23.3592 24.3529 24.2378 28.7795C24.7963 31.5934 23.1841 34.3858 20.4679 35.3091C16.1951 36.7615 15.2082 42.3585 18.7266 45.1848C20.9632 46.9813 21.5231 50.1567 20.0359 52.6099C17.6962 56.4691 20.5379 61.391 25.0499 61.2944C27.918 61.233 30.388 63.3056 30.8256 66.1409C31.514 70.6011 36.8546 72.5449 40.2489 69.5707C42.4065 67.68 45.6309 67.68 47.7886 69.5707C51.1829 72.5449 56.5234 70.6011 57.2118 66.1409C57.6494 63.3056 60.1194 61.233 62.9876 61.2944C67.4996 61.391 70.3412 56.4691 68.0016 52.6099C66.5144 50.1567 67.0743 46.9813 69.3109 45.1848C72.8293 42.3585 71.8424 36.7615 67.5695 35.3091C64.8533 34.3858 63.2411 31.5934 63.7996 28.7795C64.6783 24.3529 60.3246 20.6997 56.1178 22.3336C53.4436 23.3723 50.4136 22.2695 49.0327 19.7549Z" fill="#000"/>
</svg>
